<svg xmlns="http://www.w3.org/2000/svg" width="275" height="70.68" viewBox="0 0 275 70.68">
  <path d="M60.86 59.29c1.37-1.07 3.11-1.59 5.06-1.59 1.01 0 2.44.21 3.32.45.22.06.36.09.53.08.02.43.11 1.61.26 2.76-.09.13-.38.15-.51.04-.28-1.28-1.13-2.74-3.85-2.74-2.87 0-5.31 1.82-5.31 5.7 0 3.94 2.49 6.12 5.57 6.12 2.42 0 3.49-1.58 3.92-2.68.13-.09.41-.06.49.08-.13.98-.62 2.21-.9 2.57-.22.04-.45.11-.66.19-.41.15-1.76.43-2.96.43-1.69 0-3.3-.34-4.67-1.26-1.5-1.03-2.66-2.74-2.66-5.16 0-2.1.94-3.88 2.37-4.99zM73.78 67.47c-.43 0-.49.02-.64.45l-.43 1.2c-.21.6-.15.68.21.75l.51.09c.15.09.13.43-.06.47-.47-.04-.96-.06-1.48-.06s-.98.04-1.31.06c-.17-.08-.17-.38-.04-.47l.43-.09c.58-.13.79-.34 1.16-1.24l1.8-4.31c.32-.77.45-1.22.49-1.58.34-.13.69-.49.79-.71.15-.06.26-.02.3.09.08.19.38 1.16.81 2.31L78 68.92c.23.62.39.86 1.07.99l.3.06c.17.09.13.43-.06.47-.49-.04-.92-.06-1.56-.06-.68 0-1.22.02-1.69.06-.19-.06-.21-.39-.04-.47l.37-.06c.49-.07.47-.19.24-.77l-.45-1.22c-.15-.43-.21-.45-.64-.45h-1.76zm1.48-.6c.49 0 .54-.04.34-.58l-.58-1.59c-.15-.43-.22-.58-.28-.67h-.04c-.06.07-.13.24-.3.64l-.68 1.67c-.21.51-.17.54.24.54h1.3zM85.56 67.08c.13.24.6 1.09.68 1.14.07-.04.41-.64.77-1.31l.94-1.8c.9-1.73.99-2.05 1.29-2.93.41.04.79.06 1.09.06.45 0 .99-.02 1.54-.06.17.06.19.38.06.47l-.41.06c-.86.11-.9.47-.9 1.58 0 1.99 0 3.58.09 4.71.04.41.04.86.62.92l.54.06c.13.07.13.39-.02.47-.68-.04-1.41-.06-1.88-.06-.54 0-1.13.02-1.65.06-.13-.09-.15-.39-.02-.47l.41-.06c.6-.07.6-.23.6-.98V64.6c0-.22 0-.51-.06-.54-.06 0-.54.94-.81 1.43l-1.14 2.16c-.15.28-1.13 2.23-1.33 2.83-.09.08-.24.08-.36 0-.21-.67-.79-1.88-1.11-2.49l-1.22-2.36c-.21-.41-.6-1.41-.75-1.46-.08.09-.09 1.35-.11 1.88-.02.75-.04 1.54-.04 2.46 0 .96.02 1.37.54 1.43l.62.06c.13.07.11.39-.02.47-.49-.04-1.03-.06-1.54-.06-.41 0-.98.02-1.56.06-.13-.08-.15-.38 0-.47l.39-.06c.62-.09.68-.28.77-.94.15-1.01.26-4.03.26-5.31 0-.6-.21-.88-.84-.96l-.45-.06c-.11-.09-.13-.39.04-.47.51.04.94.06 1.45.06.38 0 .77 0 1.37-.06 0 .83.34 1.43.98 2.66l1.17 2.22zM94.16 64.43c0-1.22-.02-1.52-.54-1.59l-.58-.08c-.17-.06-.15-.41.02-.47.94-.08 2.05-.11 3.13-.11.92 0 1.69.02 2.38.28.68.24 1.18.77 1.18 1.65 0 .81-.54 1.31-1.5 1.65-.07.13.06.15.47.24.68.15 1.67.75 1.67 2.05 0 1.01-.51 1.59-1.24 1.95-.71.34-1.67.43-2.55.43-.38 0-.99-.06-1.67-.06-.6 0-1.24.02-1.97.06-.15-.06-.17-.38-.04-.47l.36-.06c.81-.13.88-.21.88-1.5v-3.97zm1.42 1c0 .3.04.32.64.32 1.18 0 1.99-.28 1.99-1.46 0-1.13-.84-1.56-1.8-1.56-.79 0-.82.17-.82.51v2.19zm0 3c0 1.12.24 1.46 1.41 1.46.94 0 1.82-.43 1.82-1.67 0-1.48-1.13-1.93-2.35-1.93-.84 0-.88.08-.88.32v1.82zM101.77 64.43c0-1.22-.02-1.54-.45-1.59l-.53-.08c-.15-.02-.19-.41 0-.47 1.03-.08 2.08-.11 3.11-.11 1.74 0 3.64.28 3.64 2.25 0 1.2-.94 1.74-1.67 2.01-.07.08-.06.19 0 .28.94 1.58 1.76 2.49 2.38 3 .34.28.69.37.99.39.08.08.08.24 0 .3-.17.06-.43.09-.79.09-1.13 0-1.8-.36-2.63-1.41-.47-.6-.98-1.43-1.37-2.03-.15-.23-.45-.3-.75-.3-.49 0-.53.04-.53.3v1.33c0 1.29.08 1.39.88 1.5l.43.06c.13.09.11.41-.04.47-.79-.04-1.41-.06-1.99-.06-.6 0-1.18.02-1.84.06-.19-.06-.21-.39-.04-.47l.28-.06c.81-.17.88-.21.88-1.5v-3.96zm1.43 1.37c0 .47.02.47.94.47 1.22 0 1.86-.49 1.86-1.78 0-.94-.66-1.76-1.97-1.76-.69 0-.83.04-.83.52v2.55zM111.24 64.21c0-1.29-.08-1.37-.88-1.5l-.36-.06c-.13-.09-.11-.41.04-.47.73.04 1.31.06 1.91.06s1.18-.02 1.91-.06c.15.06.17.38.04.47l-.36.06c-.81.13-.88.21-.88 1.5v4.2c0 1.29.07 1.37.88 1.5l.36.06c.13.09.11.41-.04.47-.71-.04-1.33-.06-1.91-.06-.6 0-1.18.02-1.91.06-.15-.06-.17-.38-.04-.47l.36-.06c.81-.13.88-.21.88-1.5v-4.2zM115.9 64.43c0-1.22-.02-1.54-.45-1.59l-.56-.08c-.17-.06-.15-.41.02-.47 1.05-.08 2.1-.11 3.62-.11 1.05 0 1.97.11 2.85.41 1.71.58 2.59 1.95 2.59 3.68 0 1.48-.77 2.85-2.27 3.62-.84.43-1.89.58-2.83.58-.84 0-1.69-.09-2.25-.09-.6 0-1.18.02-1.91.06-.15-.06-.17-.38-.04-.47l.36-.06c.81-.13.88-.21.88-1.5v-3.98zm1.42 3.7c0 1.2.19 1.8 1.61 1.8 2.25 0 3.36-1.41 3.36-3.7 0-2.31-1.61-3.51-3.73-3.51-.62 0-.98.07-1.13.21-.11.08-.11.32-.11.73v4.47zM131.41 68.69c0-.86-.02-.98-.86-1.13l-.6-.11c-.13-.09-.13-.36.02-.47.75.04 1.58.06 2.12.06.52 0 1.14-.02 1.59-.06.15.09.17.36.06.47l-.34.08c-.49.11-.56.23-.56 1.03v.52c0 .45.04.73.3.86.07.06.07.22-.02.26-.21 0-.6.11-1.13.21-.51.09-1.16.23-1.88.23-1.67 0-3.04-.39-4.03-1.39-.79-.79-1.16-1.88-1.16-2.85 0-1.05.38-2.12 1.18-2.95.86-.88 2.14-1.48 4.15-1.48 1.03 0 1.95.26 2.51.38.02.38.06 1.13.17 2.12-.09.17-.38.19-.49.02-.49-1.48-1.29-1.97-2.66-1.97-1.97 0-3.19 1.52-3.19 3.71 0 2.31 1.43 3.86 3.7 3.86.99 0 1.13-.19 1.13-.94v-.46zM135.51 64.21c0-1.29-.08-1.35-.79-1.5l-.26-.06c-.13-.08-.11-.39.04-.47.54.04 1.13.06 1.74.06h2.66c.83 0 1.58-.02 1.75-.06.02.23.11 1.11.21 1.91-.07.15-.37.17-.49.04-.11-.49-.22-.73-.34-.9-.3-.45-1.14-.45-1.59-.45h-.83c-.66 0-.68.02-.68.6v2.08c0 .34 0 .38.36.38h.88c.99 0 1.09-.15 1.24-.71l.09-.36c.09-.13.37-.11.47.04-.04.54-.04.88-.04 1.31 0 .47 0 .81.04 1.35-.09.15-.37.17-.47.04l-.09-.36c-.15-.56-.24-.71-1.24-.71h-.88c-.36 0-.36.06-.36.43v1.35c0 .56.04 1.14.21 1.35.17.19.51.26 1.58.26 1.2 0 1.9-.06 2.44-1.56.13-.13.43-.09.49.08-.09.79-.36 1.73-.56 2.08-1.18-.04-2.18-.06-3.19-.06h-1.65c-.6 0-1.18.02-2.08.06-.15-.06-.17-.38-.04-.47l.51-.06c.81-.09.88-.21.88-1.5v-4.19zM150.6 66.22c0 .82-.65 1.45-1.46 1.45-.81 0-1.46-.63-1.46-1.45s.65-1.46 1.46-1.46c.81 0 1.46.64 1.46 1.46zM159.8 59.29c1.37-1.07 3.11-1.59 5.06-1.59 1.01 0 2.44.21 3.32.45.22.06.36.09.52.08.02.43.11 1.61.26 2.76-.09.13-.38.15-.51.04-.28-1.28-1.13-2.74-3.85-2.74-2.87 0-5.31 1.82-5.31 5.7 0 3.94 2.49 6.12 5.57 6.12 2.42 0 3.49-1.58 3.92-2.68.13-.09.41-.06.49.08-.13.98-.62 2.21-.9 2.57-.23.04-.45.11-.66.19-.41.15-1.76.43-2.96.43-1.69 0-3.3-.34-4.67-1.26-1.5-1.03-2.66-2.74-2.66-5.16.02-2.1.96-3.88 2.38-4.99zM179.57 66.27c0 2.53-1.91 4.37-4.56 4.37-2.91 0-4.63-1.89-4.63-4.26 0-2.49 1.91-4.41 4.63-4.41 3.02.01 4.56 2.01 4.56 4.3zm-7.52-.19c0 1.93.88 4.01 3.06 4.01 1.43 0 2.8-.98 2.8-3.55 0-2.01-.96-4.03-3.02-4.03-1.36.01-2.84.93-2.84 3.57zM189.72 66.27c0 2.53-1.91 4.37-4.56 4.37-2.91 0-4.63-1.89-4.63-4.26 0-2.49 1.91-4.41 4.63-4.41 3.02.01 4.56 2.01 4.56 4.3zm-7.52-.19c0 1.93.88 4.01 3.06 4.01 1.43 0 2.79-.98 2.79-3.55 0-2.01-.96-4.03-3.02-4.03-1.35.01-2.83.93-2.83 3.57zM197.97 65.13c0-1.88-.11-2.36-.81-2.42l-.6-.06c-.13-.11-.11-.38.04-.47.69.04 1.13.06 1.67.06s.96-.02 1.56-.06c.15.09.15.38.02.47l-.56.06c-.49.06-.64.56-.64 2.42v3.15c0 .38 0 1.89.06 2.18-.06.11-.23.21-.39.17-.21-.26-.58-.66-1.75-1.91l-2.85-3.04c-.71-.75-1.2-1.24-1.44-1.45-.07 0-.07.21-.07.79v2.48c0 1.88.11 2.36.81 2.42l.6.06c.15.11.11.38-.04.47-.69-.04-1.13-.06-1.67-.06s-.9.02-1.56.06c-.15-.08-.15-.38-.02-.47l.56-.06c.49-.06.64-.56.64-2.42v-3.36c0-.62-.02-.88-.39-1.16-.15-.11-.51-.23-.69-.26l-.28-.06c-.13-.11-.13-.39.04-.47.71.06 1.22.06 1.61.06.26 0 .52-.02.75-.06.38.71 1.07 1.52 1.84 2.31l1.76 1.82c.41.41 1.5 1.6 1.71 1.75.11-.04.11-.3.11-.75v-2.19zM208.85 60.83c0-1.78-.06-2.1-.83-2.2l-.6-.07c-.13-.09-.13-.39.02-.47 1.05-.09 2.34-.15 4.18-.15 1.16 0 2.27.09 3.13.56.9.47 1.56 1.31 1.56 2.63 0 1.78-1.41 2.76-2.35 3.13-.09.11 0 .3.09.45 1.5 2.42 2.5 3.92 3.77 4.99.32.28.79.49 1.29.52.1.04.11.19.02.26-.17.06-.47.09-.83.09-1.59 0-2.55-.47-3.88-2.36-.49-.69-1.26-1.99-1.84-2.83-.28-.41-.58-.6-1.33-.6-.84 0-.88.02-.88.41v2.36c0 1.97.04 2.19 1.13 2.34l.39.06c.11.09.08.41-.04.47-.84-.04-1.48-.06-2.23-.06-.79 0-1.46.02-2.34.06-.11-.06-.15-.34-.04-.47l.47-.06c1.09-.13 1.13-.37 1.13-2.34v-6.72zm1.54 2.68c0 .34 0 .54.06.62.06.06.34.09 1.3.09.67 0 1.39-.07 1.93-.49.51-.39.94-1.05.94-2.33 0-1.48-.92-2.89-3-2.89-1.16 0-1.22.08-1.22.6v4.4z"/>
  <path d="M221.6 67.47c-.43 0-.49.02-.64.45l-.43 1.2c-.21.6-.15.68.21.75l.51.09c.15.09.13.43-.06.47-.47-.04-.96-.06-1.48-.06-.53 0-.98.04-1.31.06-.17-.08-.17-.38-.04-.47l.43-.09c.58-.13.79-.34 1.16-1.24l1.8-4.31c.32-.77.45-1.22.49-1.58.34-.13.69-.49.79-.71.15-.06.26-.02.3.09.07.19.37 1.16.81 2.31l1.69 4.48c.22.62.39.86 1.07.99l.3.06c.17.09.13.43-.06.47-.49-.04-.92-.06-1.56-.06-.68 0-1.22.02-1.69.06-.19-.06-.21-.39-.04-.47l.38-.06c.49-.07.47-.19.24-.77l-.45-1.22c-.15-.43-.21-.45-.64-.45h-1.78zm1.48-.6c.49 0 .54-.04.34-.58l-.58-1.59c-.15-.43-.22-.58-.28-.67h-.04c-.06.07-.13.24-.3.64l-.68 1.67c-.21.51-.17.54.24.54h1.3zM229.09 64.43c0-1.22-.02-1.5-.45-1.58l-.56-.09c-.17-.06-.15-.41.02-.47 1.05-.08 2.01-.11 3-.11 1.05 0 1.73.13 2.25.32.62.23 1.52.86 1.52 2.19 0 1.29-.86 1.9-1.56 2.14-.64.22-1.35.32-1.71.28-.09-.09-.09-.26-.02-.34 1.16-.24 1.74-.94 1.74-2.14 0-1.24-.77-1.91-2.05-1.91-.77 0-.77.11-.77.64v5.05c0 1.29.08 1.39.88 1.5l.43.06c.13.09.11.41-.04.47-.79-.04-1.41-.06-1.99-.06-.6 0-1.18.02-1.84.06-.15-.06-.17-.38-.04-.47l.28-.06c.81-.17.88-.21.88-1.5v-3.98zM236.47 64.21c0-1.29-.07-1.37-.88-1.5l-.36-.06c-.13-.09-.11-.41.04-.47.73.04 1.31.06 1.91.06.6 0 1.18-.02 1.91-.06.15.06.17.38.04.47l-.36.06c-.81.13-.88.21-.88 1.5v4.2c0 1.29.08 1.37.88 1.5l.36.06c.13.09.11.41-.04.47-.71-.04-1.33-.06-1.91-.06-.6 0-1.18.02-1.91.06-.15-.06-.17-.38-.04-.47l.36-.06c.81-.13.88-.21.88-1.5v-4.2zM241.35 64.43c0-1.22-.02-1.54-.45-1.59l-.56-.08c-.17-.06-.15-.41.02-.47 1.05-.08 2.1-.11 3.62-.11 1.05 0 1.97.11 2.85.41 1.71.58 2.59 1.95 2.59 3.68 0 1.48-.77 2.85-2.27 3.62-.84.43-1.89.58-2.83.58-.84 0-1.69-.09-2.25-.09-.6 0-1.18.02-1.91.06-.15-.06-.17-.38-.04-.47l.36-.06c.81-.13.88-.21.88-1.5v-3.98zm1.43 3.7c0 1.2.19 1.8 1.61 1.8 2.25 0 3.36-1.41 3.36-3.7 0-2.31-1.61-3.51-3.73-3.51-.62 0-.97.07-1.12.21-.11.08-.11.32-.11.73v4.47zM252.29 66.55c-.9-.47-1.67-1.2-1.67-2.25 0-1.37 1.05-2.33 2.95-2.33.66 0 1.11.17 1.74.28.15.32.28 1.03.26 1.84-.06.15-.39.17-.49.04-.15-.66-.64-1.61-1.75-1.61-1.11 0-1.52.64-1.52 1.28 0 .68.51 1.09 1.26 1.48l1.16.6c.67.34 1.52 1.13 1.52 2.38 0 1.46-1.2 2.38-3.06 2.38-1.14 0-1.89-.39-2.16-.58-.17-.26-.39-.94-.39-1.93.07-.19.36-.21.49-.04.15.68.97 2.01 2.23 2.01.96 0 1.58-.49 1.58-1.35 0-.6-.24-1.22-1.31-1.76l-.84-.44z"/>
  <g>
    <linearGradient id="a" gradientUnits="userSpaceOnUse" x1="26.41" y1="32.242" x2="26.41" y2="-3.003">
      <stop offset="0" stop-color="#8ED8F8"/>
      <stop offset=".196" stop-color="#81CBF1"/>
      <stop offset=".558" stop-color="#5CB3E4"/>
      <stop offset="1" stop-color="#0194D3"/>
    </linearGradient>
    <path fill="url(#a)" d="M12.87 32.71C4.88 22.43 9.67 7.52 17.11 2.52c5.32-3.58 19.73-5.05 26.97 7.42-3.44-2.2-13.02-2.63-20.67.75-7.52 3.33-12.85 13.12-10.54 22.02z"/>
    <linearGradient id="b" gradientUnits="userSpaceOnUse" x1="12.133" y1="30.39" x2="39.174" y2="30.39">
      <stop offset="0" stop-color="#F1CB00"/>
      <stop offset=".095" stop-color="#F1CC06"/>
      <stop offset=".22" stop-color="#F2D016"/>
      <stop offset=".36" stop-color="#F4D531"/>
      <stop offset=".513" stop-color="#F6DD57"/>
      <stop offset=".676" stop-color="#F8E788"/>
      <stop offset=".845" stop-color="#FCF3C2"/>
      <stop offset="1" stop-color="#FFF"/>
    </linearGradient>
    <path fill="url(#b)" d="M15.04 22.26c-1.45 3.56-1.4 7.56-.6 11.77 6.86 7.65 17.21 4.28 20.16-.76-5.25 3.27-16.38 2.08-19.56-11.01z"/>
    <linearGradient id="c" gradientUnits="userSpaceOnUse" x1="24.403" y1="1.814" x2="24.403" y2="50.185">
      <stop offset="0" stop-color="#8ED8F8"/>
      <stop offset=".472" stop-color="#5CB3E4"/>
      <stop offset=".932" stop-color="#0194D3"/>
    </linearGradient>
    <path fill="url(#c)" d="M14.34 3.19c-2.28 2.49-7.12 7.16-7 18.28.1 8.83 7.44 18.55 16.86 18.55 8.93 0 15.48-7.84 15.08-15.97-.4-8.13-7.14-12.8-10.02-13.79 4.07-.7 11.75-1.25 16.07 1.98 2.38 2.71 3.47 6.41 3.47 13.24v24.06s-6.75 1.19-10.02-5.06c-1.79 1.59-5.63 4.76-14.49 4.76C13.24 49.25 0 42.01 0 25.74 0 11.07 10.2 4.85 14.34 3.19z"/>
  </g>
  <g>
    <path d="M73.92 23.65c-.27-.84-.42-.96-1.57-.96h-5.78c-.96 0-1.19.12-1.45.92l-1.34 4.02c-.57 1.72-.84 2.76-.84 3.18 0 .46.19.69 1.11.77l1.26.12c.27.19.27.8-.08.96-1-.08-2.18-.08-3.98-.11-1.26 0-2.64.08-3.68.11-.23-.15-.31-.77-.08-.96l1.26-.12c.92-.08 1.76-.5 2.3-1.88.69-1.76 1.76-4.25 3.37-8.54l3.91-10.34c.54-1.38.77-2.1.65-2.72.92-.27 1.57-.96 1.99-1.46.23 0 .5.08.57.35.5 1.69 1.11 3.45 1.69 5.13l5.25 15.4c1.11 3.29 1.61 3.87 3.26 4.06l1.03.12c.27.19 1.56.77 1.32.78-2.27.05-4.23.06-5.95.06-1.84 0-3.29.08-4.41.11-.31-.15-.34-.77-.08-.96l1.11-.12c.8-.08 1.34-.31 1.34-.69 0-.42-.19-1.11-.5-2.03l-1.68-5.2zm-7.59-3.41c-.31.88-.27.92.8.92h4.71c1.11 0 1.19-.15.84-1.19l-2.07-6.24c-.31-.92-.65-1.95-.88-2.41h-.08c-.11.19-.5 1.11-.92 2.26l-2.4 6.66z"/>
    <path d="M98.36 21.81c0-3.83-.23-4.83-1.65-4.94l-1.23-.12c-.27-.23-.23-.77.08-.96 1.42.08 2.3.11 3.41.11 1.11 0 1.95-.04 3.18-.11.31.19.31.76.04.96l-1.15.12c-1 .11-1.3 1.15-1.3 4.94v6.43c0 .77 0 3.87.11 4.44-.11.23-.46.42-.8.35-.42-.54-1.19-1.34-3.56-3.91l-5.82-6.21c-1.45-1.53-2.45-2.53-2.95-2.95-.15 0-.15.42-.15 1.61v5.06c0 3.83.23 4.83 1.65 4.94l1.23.12c.31.23.23.76-.08.96-1.42-.08-2.3-.11-3.41-.11-1.59 0-2.25-.07-3.11-.02-.31-.15-.37-.63-.11-.82l1.15-.12c1-.11 1.3-1.15 1.3-4.94v-6.86c0-1.26-.04-1.8-.8-2.37-.31-.23-1.03-.46-1.42-.54l-.57-.12c-.27-.23-.27-.8.08-.96 1.46.11 2.49.11 3.29.11.54 0 1.07-.04 1.53-.11.77 1.46 2.18 3.1 3.75 4.71l3.6 3.72c.84.84 3.06 3.25 3.49 3.56.23-.08.23-.61.23-1.53v-4.44zM121.22 24.15c0 5.17-3.91 8.93-9.31 8.93-5.94 0-9.46-3.87-9.46-8.69 0-5.09 3.91-9 9.46-9 6.17-.01 9.31 4.09 9.31 8.76zm-15.36-.38c0 3.95 1.8 8.2 6.24 8.2 2.91 0 5.71-1.99 5.71-7.24 0-4.1-1.95-8.24-6.17-8.24-2.75 0-5.78 1.88-5.78 7.28zM124.17 19.94c0-2.64-.15-2.72-1.8-3.06l-.57-.12c-.27-.19-.23-.84.08-.96 1.34.08 2.53.11 3.75.11 1.23 0 2.41-.04 3.83-.11.34.11.38.76.04.96l-.77.12c-1.49.23-1.65.42-1.65 3.06v2.14c0 .77 0 1.23.19 1.34.19.11.77-.04 1.03-.23 1.3-.92 4.33-4.33 4.64-4.67.8-.92.88-1.46.31-1.57l-.84-.19c-.34-.15-.31-.88.08-.96 1.07.08 2.18.11 3.41.11 1.07 0 1.95-.04 3.22-.11.35.11.42.76.08.96-.69.15-1.88.34-2.6.73-.96.5-1.88 1.26-3.56 2.87l-1.76 1.68c-.77.77-.73.88-.15 1.57l4.79 5.75c1.38 1.65 1.95 2.18 3.64 2.3l.54.04c.31.23.29.67-.05.73-.56.09-2.1.11-3.78.11-1.26 0-2.49 0-3.75.11-.38-.15-.42-.73-.15-.96l.54-.08c.88-.12 1.03-.35.46-1.03l-3.45-4.18c-.31-.38-1.42-2.03-2.15-2.03-.65 0-.65.38-.65 1.46v2.68c0 2.64.15 2.8 1.8 3.06l.73.12c.27.19.23.84-.08.96-1.46-.08-2.72-.11-3.91-.11-1.23 0-2.41.04-3.64.11-.31-.11-.34-.77-.08-.96l.46-.12c1.61-.38 1.8-.42 1.8-3.06v-8.57z"/>
    <path d="M145.74 26.6c-.88 0-.99.04-1.3.92l-.88 2.45c-.42 1.23-.31 1.38.42 1.53l1.03.19c.31.19.27.88-.11.96-.96-.08-1.95-.11-3.03-.11-1.07 0-2.32-.06-3.01-.02-.35-.15-.02-.63.25-.82l.88-.19c1.19-.27 1.61-.69 2.37-2.53l3.68-8.81c.65-1.57.92-2.49.99-3.22.69-.27 1.42-1 1.61-1.46.31-.11.54-.04.61.19.15.38.77 2.38 1.65 4.71l3.45 9.16c.46 1.26.8 1.76 2.18 2.03l.61.12c.34.19.27.88-.12.96-1-.08-1.88-.11-3.18-.11-1.38 0-2.49.04-3.45.11-.38-.11-.42-.8-.08-.96l.77-.12c1-.15.96-.38.5-1.57l-.92-2.49c-.31-.88-.42-.92-1.3-.92h-3.62zm3.02-1.22c1 0 1.11-.08.69-1.19l-1.19-3.26c-.31-.88-.46-1.19-.57-1.38h-.08c-.12.15-.27.5-.61 1.3l-1.38 3.41c-.42 1.03-.35 1.11.5 1.11h2.64zM163.31 23.95c.25.46.2 1.86-.07 2.18l-6.68-.02c-.27-.48-.23-1.85.05-2.2l6.7.04zM167.74 13.04c0-3.64-.11-4.29-1.69-4.48l-1.23-.15c-.27-.19-.27-.8.04-.96 2.15-.19 4.79-.31 8.54-.31 2.37 0 4.64.19 6.4 1.15 1.84.96 3.18 2.68 3.18 5.36 0 3.64-2.87 5.63-4.79 6.4-.19.23 0 .61.19.92 3.06 4.94 5.37 7.75 7.97 9.93.65.58 1.93.98 2.99-.24.14-.16.33 1.6.14 1.75-.34.11-1.43.12-2.16.12-3.26 0-5.46-.53-8.18-4.4-1-1.42-2.57-4.06-3.75-5.78-.58-.84-1.19-1.23-2.72-1.23-1.72 0-1.8.04-1.8.84v4.83c0 4.02.08 4.48 2.3 4.79l.81.12c.23.19.15.84-.08.96-1.72-.08-3.03-.11-4.56-.11-1.61 0-2.99.04-4.79.11-.23-.11-.31-.69-.08-.96l.96-.12c2.22-.27 2.3-.77 2.3-4.79V13.04zm3.15 5.48c0 .69 0 1.11.11 1.26.11.11.69.19 2.64.19 1.38 0 2.83-.15 3.95-1 1.03-.81 1.92-2.15 1.92-4.75 0-3.03-1.88-5.9-6.13-5.9-2.38 0-2.49.15-2.49 1.23v8.97z"/>
    <path d="M193.6 26.6c-.88 0-1 .04-1.3.92l-.88 2.45c-.42 1.23-.31 1.38.42 1.53l1.03.19c.31.19.27.88-.11.96-.96-.08-1.95-.11-3.03-.11-3.3 0-4.23-.54-2.68-.63-.34-.15-.34-.02-.08-.21l.88-.19c1.19-.27 1.61-.69 2.37-2.53l3.68-8.81c.65-1.57.92-2.49 1-3.22.69-.27 1.42-1 1.61-1.46.31-.11.53-.04.61.19.15.38.77 2.38 1.65 4.71l3.45 9.16c.46 1.26.8 1.76 2.18 2.03l1.36.1c.28.37-.17.76-.56.83-1-.08-2.18.02-3.48.02-1.38 0-2.49.04-3.45.11-.38-.11-.42-.8-.08-.96l.77-.12c1-.15.96-.38.5-1.57l-.92-2.49c-.31-.88-.42-.92-1.3-.92h-3.64zm3.03-1.22c1 0 1.11-.08.69-1.19l-1.19-3.26c-.31-.88-.46-1.19-.57-1.38h-.08c-.11.15-.27.5-.61 1.3l-1.38 3.41c-.42 1.03-.35 1.11.5 1.11h2.64z"/>
    <path d="M215.62 25.8c.27.5 1.23 2.22 1.38 2.34.15-.08.84-1.3 1.57-2.68l1.91-3.68c1.84-3.53 2.03-4.18 2.64-5.98.84.08 1.61.11 2.22.11.92 0 2.03-.04 3.14-.11.35.11.38.76.11.96l-.84.12c-1.76.23-1.84.96-1.84 3.22 0 4.06 0 7.32.19 9.61.08.84.08 1.76 1.26 1.88l1.11.12c.27.15.27.8-.04.96-1.38-.08-2.87-.11-3.83-.11-1.11 0-2.3.04-3.37.11-.27-.19-.31-.8-.04-.96l.84-.12c1.23-.15 1.23-.46 1.23-1.99v-8.85c0-.46 0-1.03-.11-1.11-.11 0-1.11 1.92-1.65 2.91l-2.34 4.41c-.31.58-2.3 4.56-2.72 5.78-.19.15-.5.15-.73 0-.42-1.38-1.61-3.83-2.26-5.09l-2.49-4.83c-.42-.84-1.23-2.87-1.53-2.99-.15.19-.19 2.76-.23 3.83-.04 1.53-.08 3.14-.08 5.02 0 1.95.04 2.8 1.11 2.91l1.26.12c.27.15.23.8-.04.96-1-.08-2.11-.11-3.14-.11-.84 0-2.24-.09-3.43-.02-.94-.53-.91-.42-.33-.79l1.38-.15c1.26-.19 1.38-.58 1.57-1.92.31-2.07.54-8.24.54-10.84 0-1.23-.42-1.8-1.72-1.95l-.92-.12c-.23-.19-.27-.8.08-.96 1.03.08 1.92.11 2.95.11.77 0 1.57 0 2.8-.11 0 1.69.69 2.91 1.99 5.44l2.4 4.55zM234.24 24.73c-1.84-.96-3.41-2.45-3.41-4.6 0-2.8 2.15-4.75 6.01-4.75 1.34 0 2.26.35 3.56.58.31.65.57 2.11.54 3.75-.11.31-.8.35-1 .08-.31-1.34-1.3-3.29-3.56-3.29s-3.1 1.3-3.1 2.6c0 1.38 1.03 2.22 2.57 3.03l2.37 1.23c1.38.69 3.1 2.3 3.1 4.86 0 2.99-2.45 4.86-6.24 4.86-2.34 0-3.87-.8-4.4-1.19-.34-.54-.8-1.91-.8-3.94.15-.38.73-.42 1-.08.31 1.38 1.99 4.1 4.56 4.1 1.95 0 3.22-1 3.22-2.76 0-1.23-.5-2.49-2.68-3.6l-1.74-.88zM244.93 19.94c0-2.64-.15-2.76-1.61-3.06l-.54-.12c-.27-.15-.23-.8.08-.96 1.11.08 2.3.11 3.56.11h5.44c1.68 0 3.22-.04 3.56-.11.04.46.23 2.26.42 3.91-.15.31-.77.35-1 .08-.23-1-.46-1.49-.69-1.84-.61-.92-2.34-.92-3.26-.92h-1.68c-1.34 0-1.38.04-1.38 1.23v4.25c0 .69 0 .77.73.77h1.8c2.03 0 2.22-.31 2.53-1.45l.19-.73c.19-.27.77-.23.96.08-.08 1.11-.08 1.8-.08 2.68 0 .96 0 1.65.08 2.76-.19.31-.77.34-.96.08l-.19-.73c-.31-1.15-.5-1.46-2.53-1.46h-1.8c-.73 0-.73.12-.73.88v2.76c0 1.15.08 2.34.42 2.76.34.38 1.03.54 3.22.54 2.45 0 3.87-.11 4.98-3.18.27-.27.88-.19 1 .15-.19 1.61-.73 3.52-1.15 4.25-2.41-.08-4.44-.11-6.51-.11h-3.37c-1.23 0-2.41.04-4.25.11-.31-.11-.34-.77-.08-.96l1.03-.12c1.65-.19 1.8-.42 1.8-3.06v-8.59zM264.58 27.44c0-1.19-.11-1.49-1.07-3.26l-2.8-5.17c-.81-1.53-1.19-1.88-2.18-2.07l-1-.19c-.27-.23-.19-.84.11-.96 1.26.08 2.14.11 3.52.11 1.15 0 2.03-.04 3.26-.11.31.15.42.76.04.96l-.54.12c-.84.19-.96.42-.34 1.61L265 21.2c.61 1.15 1.15 2.18 1.72 3.18.61-1.03 1.19-1.95 1.84-3.18l1.53-2.8c.57-1.07.65-1.42-.27-1.53l-.81-.12c-.34-.19-.31-.8.08-.96 1.15.08 2.03.11 2.91.11.84 0 1.65-.04 2.72-.11.31.11.38.76.08.96l-.92.19c-1.19.23-1.38.46-2.57 2.38l-2.38 3.83c-1.38 2.18-1.46 2.57-1.46 3.68v2.07c0 2.26.15 2.49 1.8 2.68l.96.12c.27.19.23.84-.08.96-1.69-.08-2.95-.11-4.14-.11-1.23 0-2.41.04-4.14.11-.31-.11-.35-.77-.08-.96l.96-.12c1.65-.19 1.8-.42 1.8-2.68v-1.46z"/>
  </g>
  <g>
    <path d="M66.98 42.09l-1.11 1.05c-.75-.8-1.6-1.19-2.54-1.19-.79 0-1.46.27-2 .81s-.81 1.21-.81 2c0 .55.12 1.05.36 1.47.24.43.58.77 1.02 1.01.44.25.93.37 1.47.37.46 0 .88-.08 1.26-.26.38-.17.8-.48 1.25-.93l1.07 1.12c-.61.6-1.19 1.01-1.74 1.25-.55.23-1.17.35-1.87.35-1.29 0-2.35-.41-3.17-1.23-.82-.82-1.23-1.87-1.23-3.15 0-.83.19-1.56.56-2.21.38-.64.91-1.16 1.61-1.55.7-.39 1.45-.59 2.25-.59.68 0 1.34.15 1.98.43.63.31 1.18.72 1.64 1.25zM75.74 40.42c1.17 0 2.18.43 3.03 1.28.85.85 1.27 1.89 1.27 3.11 0 1.21-.42 2.24-1.25 3.07-.83.84-1.85 1.26-3.04 1.26-1.25 0-2.28-.43-3.11-1.29-.82-.86-1.24-1.88-1.24-3.07 0-.79.19-1.52.58-2.19.38-.66.91-1.19 1.58-1.58.68-.39 1.41-.59 2.18-.59zm-.01 1.55c-.77 0-1.41.27-1.94.8-.52.54-.79 1.22-.79 2.04 0 .92.33 1.64.99 2.18.51.42 1.1.63 1.76.63.75 0 1.39-.27 1.92-.81s.79-1.21.79-2-.26-1.46-.8-2.01c-.53-.56-1.17-.83-1.93-.83zM85.8 40.63h1.54l1.92 5.79 1.94-5.79h1.54l1.39 8.3H92.6l-.89-5.24-1.76 5.24h-1.39l-1.75-5.24-.91 5.24h-1.54l1.44-8.3zM99.67 40.63h1.54l1.92 5.79 1.94-5.79h1.54l1.39 8.3h-1.53l-.89-5.24-1.76 5.24h-1.39l-1.75-5.24-.91 5.24h-1.54l1.44-8.3zM112.68 40.63h1.59V46c0 .46.04.79.12.98.08.19.21.34.4.46.19.11.41.17.67.17.28 0 .52-.06.72-.19.2-.13.34-.29.42-.49.08-.2.12-.58.12-1.13v-5.17h1.58v4.95c0 .83-.05 1.41-.14 1.74-.09.32-.27.63-.54.94-.27.3-.57.52-.92.67-.35.15-.75.22-1.21.22-.6 0-1.13-.14-1.57-.41-.45-.28-.76-.62-.96-1.04-.19-.42-.29-1.12-.29-2.11v-4.96zM123.6 40.63h1.52l3.55 5.46v-5.46h1.58v8.3h-1.52l-3.55-5.45v5.45h-1.58v-8.3zM135.5 40.63h1.57v8.3h-1.57v-8.3zM141.49 40.63h4.59v1.56h-1.51v6.74h-1.6v-6.74h-1.47v-1.56zM150.04 40.63h1.7l1.55 2.99 1.54-2.99h1.68l-2.43 4.71v3.6h-1.59v-3.6l-2.45-4.71zM178.47 42.09l-1.11 1.05c-.75-.8-1.6-1.19-2.54-1.19-.79 0-1.46.27-2 .81s-.81 1.21-.81 2c0 .55.12 1.05.36 1.47.24.43.58.77 1.02 1.01.44.25.93.37 1.47.37.46 0 .88-.08 1.26-.26.38-.17.8-.48 1.25-.93l1.07 1.12c-.61.6-1.19 1.01-1.74 1.25-.55.23-1.17.35-1.87.35-1.29 0-2.35-.41-3.17-1.23-.82-.82-1.23-1.87-1.23-3.15 0-.83.19-1.56.56-2.21.38-.64.91-1.16 1.61-1.55.7-.39 1.45-.59 2.25-.59.69 0 1.35.15 1.98.43.63.31 1.18.72 1.64 1.25zM187.23 40.42c1.18 0 2.19.43 3.03 1.28.84.85 1.27 1.89 1.27 3.11 0 1.21-.42 2.24-1.25 3.07-.83.84-1.85 1.26-3.03 1.26-1.25 0-2.28-.43-3.11-1.29-.82-.86-1.23-1.88-1.23-3.07 0-.79.19-1.52.58-2.19.38-.66.91-1.19 1.58-1.58.67-.39 1.39-.59 2.16-.59zm-.01 1.55c-.77 0-1.42.27-1.94.8s-.79 1.21-.79 2.04c0 .92.33 1.64.99 2.18.51.42 1.1.63 1.76.63.75 0 1.39-.27 1.91-.81.53-.54.79-1.21.79-2s-.27-1.46-.8-2.01c-.51-.56-1.16-.83-1.92-.83zM196.49 40.63h1.58v6.79h2.3v1.51h-3.88v-8.3zM205.04 40.63h1.58v6.79h2.3v1.51h-3.88v-8.3zM213.6 40.63h4.53v1.55h-2.96v1.5h2.96v1.52h-2.96v2.18h2.96v1.55h-4.53v-8.3zM230.73 41.99l-1.11 1.1c-.71-.74-1.52-1.12-2.46-1.12-.82 0-1.5.27-2.05.81-.55.54-.83 1.2-.83 1.98 0 .8.29 1.48.86 2.04.57.56 1.28.83 2.12.83.55 0 1.01-.11 1.38-.34.38-.23.68-.59.91-1.08h-2.4v-1.48h4.18l.01.35c0 .73-.19 1.42-.56 2.07-.38.65-.86 1.15-1.46 1.49-.6.34-1.3.51-2.1.51-.86 0-1.63-.19-2.31-.56-.68-.37-1.21-.91-1.6-1.6-.39-.69-.59-1.44-.59-2.24 0-1.1.36-2.05 1.09-2.87.86-.97 1.98-1.45 3.36-1.45.72 0 1.4.14 2.03.4.5.22 1.02.61 1.53 1.16zM236.25 40.63h4.53v1.55h-2.96v1.5h2.96v1.52h-2.96v2.18h2.96v1.55h-4.53v-8.3z"/>
  </g>
</svg>
